<svg id="my-svg" width="100%" xmlns="http://www.w3.org/2000/svg" xmlns:xlink="http://www.w3.org/1999/xlink" class="flowchart" style="max-width: 1624px; background-color: white;" viewBox="0 0 1624.002197265625 364" role="graphics-document document" aria-roledescription="flowchart-v2"><style>#my-svg{font-family:"trebuchet ms",verdana,arial,sans-serif;font-size:16px;fill:#333;}@keyframes edge-animation-frame{from{stroke-dashoffset:0;}}@keyframes dash{to{stroke-dashoffset:0;}}#my-svg .edge-animation-slow{stroke-dasharray:9,5!important;stroke-dashoffset:900;animation:dash 50s linear infinite;stroke-linecap:round;}#my-svg .edge-animation-fast{stroke-dasharray:9,5!important;stroke-dashoffset:900;animation:dash 20s linear infinite;stroke-linecap:round;}#my-svg .error-icon{fill:#552222;}#my-svg .error-text{fill:#552222;stroke:#552222;}#my-svg .edge-thickness-normal{stroke-width:1px;}#my-svg .edge-thickness-thick{stroke-width:3.5px;}#my-svg .edge-pattern-solid{stroke-dasharray:0;}#my-svg .edge-thickness-invisible{stroke-width:0;fill:none;}#my-svg .edge-pattern-dashed{stroke-dasharray:3;}#my-svg .edge-pattern-dotted{stroke-dasharray:2;}#my-svg .marker{fill:#333333;stroke:#333333;}#my-svg .marker.cross{stroke:#333333;}#my-svg svg{font-family:"trebuchet ms",verdana,arial,sans-serif;font-size:16px;}#my-svg p{margin:0;}#my-svg .label{font-family:"trebuchet ms",verdana,arial,sans-serif;color:#333;}#my-svg .cluster-label text{fill:#333;}#my-svg .cluster-label span{color:#333;}#my-svg .cluster-label span p{background-color:transparent;}#my-svg .label text,#my-svg span{fill:#333;color:#333;}#my-svg .node rect,#my-svg .node circle,#my-svg .node ellipse,#my-svg .node polygon,#my-svg .node path{fill:#ECECFF;stroke:#9370DB;stroke-width:1px;}#my-svg .rough-node .label text,#my-svg .node .label text,#my-svg .image-shape .label,#my-svg .icon-shape .label{text-anchor:middle;}#my-svg .node .katex path{fill:#000;stroke:#000;stroke-width:1px;}#my-svg .rough-node .label,#my-svg .node .label,#my-svg .image-shape .label,#my-svg .icon-shape .label{text-align:center;}#my-svg .node.clickable{cursor:pointer;}#my-svg .root .anchor path{fill:#333333!important;stroke-width:0;stroke:#333333;}#my-svg .arrowheadPath{fill:#333333;}#my-svg .edgePaths .path{stroke:#333333;stroke-width:1px;}#my-svg .flowchart-link{stroke:#333333;fill:none;}#my-svg .edgeLabel{background-color:rgba(232,232,232, 0.8);text-align:center;}#my-svg .edgeLabel p{background-color:rgba(232,232,232, 0.8);}#my-svg .edgeLabel rect{opacity:0.5;background-color:rgba(232,232,232, 0.8);fill:rgba(232,232,232, 0.8);}#my-svg .labelBkg{background-color:rgba(232, 232, 232, 0.5);}#my-svg .cluster rect{fill:#ffffde;stroke:#aaaa33;stroke-width:1px;}#my-svg .cluster text{fill:#333;}#my-svg .cluster span{color:#333;}#my-svg .node .collapsed-indicator{fill:#aaaa33;stroke:none;opacity:0.6;}#my-svg .node .collapsed-separator{stroke:#aaaa33;stroke-width:0.75px;}#my-svg div.mermaidTooltip{position:absolute;text-align:center;max-width:200px;padding:2px;font-family:"trebuchet ms",verdana,arial,sans-serif;font-size:12px;background:hsl(80, 100%, 96.2745098039%);border:1px solid #aaaa33;border-radius:2px;pointer-events:none;z-index:100;}#my-svg .flowchartTitleText{text-anchor:middle;font-size:18px;fill:#333;}#my-svg rect.text{fill:none;stroke-width:0;}#my-svg .icon-shape,#my-svg .image-shape{background-color:rgba(232,232,232, 0.8);text-align:center;}#my-svg .icon-shape p,#my-svg .image-shape p{background-color:rgba(232,232,232, 0.8);padding:2px;}#my-svg .icon-shape .label rect,#my-svg .image-shape .label rect{opacity:0.5;background-color:rgba(232,232,232, 0.8);fill:rgba(232,232,232, 0.8);}#my-svg .label-icon{display:inline-block;height:1em;overflow:visible;vertical-align:-0.125em;}#my-svg .node .label-icon path{fill:currentColor;stroke:revert;stroke-width:revert;}#my-svg .node .neo-node{stroke:#9370DB;}#my-svg [data-look="neo"].node rect,#my-svg [data-look="neo"].cluster rect,#my-svg [data-look="neo"].node polygon{stroke:#9370DB;filter:drop-shadow(1px 2px 2px rgba(185, 185, 185, 1));}#my-svg [data-look="neo"].swimlane.cluster rect{filter:none;}#my-svg [data-look="neo"].node path{stroke:#9370DB;stroke-width:1px;}#my-svg [data-look="neo"].node .outer-path{filter:drop-shadow(1px 2px 2px rgba(185, 185, 185, 1));}#my-svg [data-look="neo"].node .neo-line path{stroke:#9370DB;filter:none;}#my-svg [data-look="neo"].node circle{stroke:#9370DB;filter:drop-shadow(1px 2px 2px rgba(185, 185, 185, 1));}#my-svg [data-look="neo"].node circle .state-start{fill:#000000;}#my-svg [data-look="neo"].icon-shape .icon{fill:#9370DB;filter:drop-shadow(1px 2px 2px rgba(185, 185, 185, 1));}#my-svg [data-look="neo"].icon-shape .icon-neo path{stroke:#9370DB;filter:drop-shadow(1px 2px 2px rgba(185, 185, 185, 1));}#my-svg :root{--mermaid-font-family:"trebuchet ms",verdana,arial,sans-serif;}#my-svg .ext&gt;*{fill:rgb(240, 240, 240)!important;stroke:rgb(136, 136, 136)!important;}#my-svg .ext span{fill:rgb(240, 240, 240)!important;stroke:rgb(136, 136, 136)!important;}#my-svg .core&gt;*{fill:rgb(219, 232, 255)!important;stroke:rgb(74, 111, 165)!important;}#my-svg .core span{fill:rgb(219, 232, 255)!important;stroke:rgb(74, 111, 165)!important;}#my-svg .out&gt;*{fill:rgb(223, 245, 225)!important;stroke:rgb(58, 143, 74)!important;}#my-svg .out span{fill:rgb(223, 245, 225)!important;stroke:rgb(58, 143, 74)!important;}</style><g><marker id="my-svg_flowchart-v2-pointEnd" class="marker flowchart-v2" viewBox="0 0 10 10" refX="5" refY="5" markerUnits="userSpaceOnUse" markerWidth="8" markerHeight="8" orient="auto"><path d="M 0 0 L 10 5 L 0 10 z" class="arrowMarkerPath" style="stroke-width: 1; stroke-dasharray: 1, 0;"/></marker><marker id="my-svg_flowchart-v2-pointStart" class="marker flowchart-v2" viewBox="0 0 10 10" refX="4.5" refY="5" markerUnits="userSpaceOnUse" markerWidth="8" markerHeight="8" orient="auto"><path d="M 0 5 L 10 10 L 10 0 z" class="arrowMarkerPath" style="stroke-width: 1; stroke-dasharray: 1, 0;"/></marker><marker id="my-svg_flowchart-v2-pointEnd-margin" class="marker flowchart-v2" viewBox="0 0 11.5 14" refX="11.5" refY="7" markerUnits="userSpaceOnUse" markerWidth="10.5" markerHeight="14" orient="auto"><path d="M 0 0 L 11.5 7 L 0 14 z" class="arrowMarkerPath" style="stroke-width: 0; stroke-dasharray: 1, 0;"/></marker><marker id="my-svg_flowchart-v2-pointStart-margin" class="marker flowchart-v2" viewBox="0 0 11.5 14" refX="1" refY="7" markerUnits="userSpaceOnUse" markerWidth="11.5" markerHeight="14" orient="auto"><polygon points="0,7 11.5,14 11.5,0" class="arrowMarkerPath" style="stroke-width: 0; stroke-dasharray: 1, 0;"/></marker><marker id="my-svg_flowchart-v2-circleEnd" class="marker flowchart-v2" viewBox="0 0 10 10" refX="11" refY="5" markerUnits="userSpaceOnUse" markerWidth="11" markerHeight="11" orient="auto"><circle cx="5" cy="5" r="5" class="arrowMarkerPath" style="stroke-width: 1; stroke-dasharray: 1, 0;"/></marker><marker id="my-svg_flowchart-v2-circleStart" class="marker flowchart-v2" viewBox="0 0 10 10" refX="-1" refY="5" markerUnits="userSpaceOnUse" markerWidth="11" markerHeight="11" orient="auto"><circle cx="5" cy="5" r="5" class="arrowMarkerPath" style="stroke-width: 1; stroke-dasharray: 1, 0;"/></marker><marker id="my-svg_flowchart-v2-circleEnd-margin" class="marker flowchart-v2" viewBox="0 0 10 10" refY="5" refX="12.25" markerUnits="userSpaceOnUse" markerWidth="14" markerHeight="14" orient="auto"><circle cx="5" cy="5" r="5" class="arrowMarkerPath" style="stroke-width: 0; stroke-dasharray: 1, 0;"/></marker><marker id="my-svg_flowchart-v2-circleStart-margin" class="marker flowchart-v2" viewBox="0 0 10 10" refX="-2" refY="5" markerUnits="userSpaceOnUse" markerWidth="14" markerHeight="14" orient="auto"><circle cx="5" cy="5" r="5" class="arrowMarkerPath" style="stroke-width: 0; stroke-dasharray: 1, 0;"/></marker><marker id="my-svg_flowchart-v2-crossEnd" class="marker cross flowchart-v2" viewBox="0 0 11 11" refX="12" refY="5.2" markerUnits="userSpaceOnUse" markerWidth="11" markerHeight="11" orient="auto"><path d="M 1,1 l 9,9 M 10,1 l -9,9" class="arrowMarkerPath" style="stroke-width: 2; stroke-dasharray: 1, 0;"/></marker><marker id="my-svg_flowchart-v2-crossStart" class="marker cross flowchart-v2" viewBox="0 0 11 11" refX="-1" refY="5.2" markerUnits="userSpaceOnUse" markerWidth="11" markerHeight="11" orient="auto"><path d="M 1,1 l 9,9 M 10,1 l -9,9" class="arrowMarkerPath" style="stroke-width: 2; stroke-dasharray: 1, 0;"/></marker><marker id="my-svg_flowchart-v2-crossEnd-margin" class="marker cross flowchart-v2" viewBox="0 0 15 15" refX="17.7" refY="7.5" markerUnits="userSpaceOnUse" markerWidth="12" markerHeight="12" orient="auto"><path d="M 1,1 L 14,14 M 1,14 L 14,1" class="arrowMarkerPath" style="stroke-width: 2.5;"/></marker><marker id="my-svg_flowchart-v2-crossStart-margin" class="marker cross flowchart-v2" viewBox="0 0 15 15" refX="-3.5" refY="7.5" markerUnits="userSpaceOnUse" markerWidth="12" markerHeight="12" orient="auto"><path d="M 1,1 L 14,14 M 1,14 L 14,1" class="arrowMarkerPath" style="stroke-width: 2.5; stroke-dasharray: 1, 0;"/></marker><g class="root"><g class="clusters"><g class="cluster" id="my-svg-core" data-look="classic"><rect style="fill:#f6f8fb !important;stroke:#9aa7b8 !important" x="409.296875" y="8" width="920" height="348"/><g class="cluster-label" transform="translate(853.5703125, 8)"><foreignObject width="31.453125" height="24"><div xmlns="http://www.w3.org/1999/xhtml" style="display: table-cell; white-space: nowrap; line-height: 1.5;"><span class="nodeLabel"><p>core</p></span></div></foreignObject></g></g></g><g class="edgePaths"><path d="M172.119,167L193.68,158.833C215.241,150.667,258.363,134.333,297.892,126.167C337.422,118,373.359,118,395.193,118C417.026,118,424.755,118,428.62,118L432.484,118" id="my-svg-L_HOST_IMEM_0" class="edge-thickness-normal edge-pattern-solid edge-thickness-normal edge-pattern-solid flowchart-link" style=";" data-edge="true" data-et="edge" data-id="L_HOST_IMEM_0" data-points="W3sieCI6MTcyLjExODkzNTAzMjg5NDc0LCJ5IjoxNjd9LHsieCI6MzAxLjQ4NDM3NSwieSI6MTE4fSx7IngiOjQwOS4yOTY4NzUsInkiOjExOH0seyJ4Ijo0MzYuNDg0Mzc1LCJ5IjoxMTh9XQ==" data-look="classic" marker-end="url(#my-svg_flowchart-v2-pointEnd)"/><path d="M172.119,221L193.68,229.167C215.241,237.333,258.363,253.667,297.892,261.833C337.422,270,373.359,270,394.828,270C416.297,270,423.297,270,426.797,270L430.297,270" id="my-svg-L_HOST_FIFO_0" class="edge-thickness-normal edge-pattern-solid edge-thickness-normal edge-pattern-solid flowchart-link" style=";" data-edge="true" data-et="edge" data-id="L_HOST_FIFO_0" data-points="W3sieCI6MTcyLjExODkzNTAzMjg5NDc0LCJ5IjoyMjF9LHsieCI6MzAxLjQ4NDM3NSwieSI6MjcwfSx7IngiOjQwOS4yOTY4NzUsInkiOjI3MH0seyJ4Ijo0MzQuMjk2ODc1LCJ5IjoyNzB9XQ==" data-look="classic" marker-end="url(#my-svg_flowchart-v2-pointEnd)"/><path d="M618.203,118L632.294,118C646.385,118,674.568,118,701.719,118C728.87,118,754.99,118,768.049,118L781.109,118" id="my-svg-L_IMEM_EXEC_0" class="edge-thickness-normal edge-pattern-solid edge-thickness-normal edge-pattern-solid flowchart-link" style=";" data-edge="true" data-et="edge" data-id="L_IMEM_EXEC_0" data-points="W3sieCI6NjE4LjIwMzEyNSwieSI6MTE4fSx7IngiOjcwMi43NSwieSI6MTE4fSx7IngiOjc4NS4xMDkzNzUsInkiOjExOH1d" data-look="classic" marker-end="url(#my-svg_flowchart-v2-pointEnd)"/><path d="M1045.109,118L1059.857,118C1074.604,118,1104.099,118,1133.019,126.311C1161.938,134.623,1190.283,151.245,1204.455,159.557L1218.628,167.868" id="my-svg-L_EXEC_PIN_0" class="edge-thickness-normal edge-pattern-solid edge-thickness-normal edge-pattern-solid flowchart-link" style=";" data-edge="true" data-et="edge" data-id="L_EXEC_PIN_0" data-points="W3sieCI6MTA0NS4xMDkzNzUsInkiOjExOH0seyJ4IjoxMTMzLjU5Mzc1LCJ5IjoxMTh9LHsieCI6MTIyMi4wNzgxMjUsInkiOjE2OS44OTE0ODc4MjI1MjIzfV0=" data-look="classic" marker-end="url(#my-svg_flowchart-v2-pointEnd)"/><path d="M620.391,270L634.117,270C647.844,270,675.297,270,706.746,270C738.195,270,773.641,270,791.363,270L809.086,270" id="my-svg-L_FIFO_SR_0" class="edge-thickness-normal edge-pattern-solid edge-thickness-normal edge-pattern-solid flowchart-link" style=";" data-edge="true" data-et="edge" data-id="L_FIFO_SR_0" data-points="W3sieCI6NjIwLjM5MDYyNSwieSI6MjcwfSx7IngiOjcwMi43NSwieSI6MjcwfSx7IngiOjgxMy4wODU5Mzc1LCJ5IjoyNzB9XQ==" data-look="classic" marker-end="url(#my-svg_flowchart-v2-pointEnd)"/><path d="M1017.133,270L1036.543,270C1055.953,270,1094.773,270,1128.356,261.689C1161.938,253.377,1190.283,236.755,1204.455,228.443L1218.628,220.132" id="my-svg-L_SR_PIN_0" class="edge-thickness-normal edge-pattern-solid edge-thickness-normal edge-pattern-solid flowchart-link" style=";" data-edge="true" data-et="edge" data-id="L_SR_PIN_0" data-points="W3sieCI6MTAxNy4xMzI4MTI1LCJ5IjoyNzB9LHsieCI6MTEzMy41OTM3NSwieSI6MjcwfSx7IngiOjEyMjIuMDc4MTI1LCJ5IjoyMTguMTA4NTEyMTc3NDc3N31d" data-look="classic" marker-end="url(#my-svg_flowchart-v2-pointEnd)"/><path d="M1304.297,194L1308.464,194C1312.63,194,1320.964,194,1329.297,194C1337.63,194,1345.964,194,1353.714,194.07C1361.464,194.141,1368.631,194.281,1372.214,194.351L1375.798,194.422" id="my-svg-L_PIN_LINE_0" class="edge-thickness-normal edge-pattern-solid edge-thickness-normal edge-pattern-solid flowchart-link" style=";" data-edge="true" data-et="edge" data-id="L_PIN_LINE_0" data-points="W3sieCI6MTMwNC4yOTY4NzUsInkiOjE5NH0seyJ4IjoxMzI5LjI5Njg3NSwieSI6MTk0fSx7IngiOjEzNTQuMjk2ODc1LCJ5IjoxOTR9LHsieCI6MTM3OS43OTY4NzUwMDAwMTQ2LCJ5IjoxOTQuNTAwMDAwMDAwMDAwMDN9XQ==" data-look="classic" marker-end="url(#my-svg_flowchart-v2-pointEnd)"/></g><g class="edgeLabels"><g class="edgeLabel" transform="translate(301.484375, 118)"><g class="label" data-id="L_HOST_IMEM_0" transform="translate(-82.8125, -12)"><foreignObject width="165.625" height="24"><div xmlns="http://www.w3.org/1999/xhtml" class="labelBkg" style="display: table-cell; white-space: nowrap; line-height: 1.5; max-width: 200px; text-align: center;"><span class="edgeLabel"><p>program (16-bit words)</p></span></div></foreignObject></g></g><g class="edgeLabel" transform="translate(301.484375, 270)"><g class="label" data-id="L_HOST_FIFO_0" transform="translate(-47.890625, -12)"><foreignObject width="95.78125" height="24"><div xmlns="http://www.w3.org/1999/xhtml" class="labelBkg" style="display: table-cell; white-space: nowrap; line-height: 1.5; max-width: 200px; text-align: center;"><span class="edgeLabel"><p>bytes to send</p></span></div></foreignObject></g></g><g class="edgeLabel"><g class="label" data-id="L_IMEM_EXEC_0" transform="translate(0, 0)"><foreignObject width="0" height="0"><div xmlns="http://www.w3.org/1999/xhtml" class="labelBkg" style="display: table-cell; white-space: nowrap; line-height: 1.5; max-width: 200px; text-align: center;"><span class="edgeLabel"></span></div></foreignObject></g></g><g class="edgeLabel" transform="translate(1133.59375, 118)"><g class="label" data-id="L_EXEC_PIN_0" transform="translate(-34.6484375, -12)"><foreignObject width="69.296875" height="24"><div xmlns="http://www.w3.org/1999/xhtml" class="labelBkg" style="display: table-cell; white-space: nowrap; line-height: 1.5; max-width: 200px; text-align: center;"><span class="edgeLabel"><p>SET: 0 / 1</p></span></div></foreignObject></g></g><g class="edgeLabel" transform="translate(702.75, 270)"><g class="label" data-id="L_FIFO_SR_0" transform="translate(-57.359375, -12)"><foreignObject width="114.71875" height="24"><div xmlns="http://www.w3.org/1999/xhtml" class="labelBkg" style="display: table-cell; white-space: nowrap; line-height: 1.5; max-width: 200px; text-align: center;"><span class="edgeLabel"><p>PULL: next byte</p></span></div></foreignObject></g></g><g class="edgeLabel" transform="translate(1133.59375, 270)"><g class="label" data-id="L_SR_PIN_0" transform="translate(-63.484375, -24)"><foreignObject width="126.96875" height="48"><div xmlns="http://www.w3.org/1999/xhtml" class="labelBkg" style="display: table-cell; white-space: nowrap; line-height: 1.5; max-width: 200px; text-align: center;"><span class="edgeLabel"><p>SHIFT_OUT: bit 0,<br />then shift right</p></span></div></foreignObject></g></g><g class="edgeLabel"><g class="label" data-id="L_PIN_LINE_0" transform="translate(0, 0)"><foreignObject width="0" height="0"><div xmlns="http://www.w3.org/1999/xhtml" class="labelBkg" style="display: table-cell; white-space: nowrap; line-height: 1.5; max-width: 200px; text-align: center;"><span class="edgeLabel"></span></div></foreignObject></g></g></g><g class="nodes"><g class="node default ext" id="my-svg-flowchart-HOST-0" data-look="classic" transform="translate(100.8359375, 194)"><rect class="basic label-container" style="fill:#f0f0f0 !important;stroke:#888 !important" x="-92.8359375" y="-27" width="185.671875" height="54"/><g class="label" style="" transform="translate(-62.8359375, -12)"><rect/><foreignObject width="125.671875" height="24"><div xmlns="http://www.w3.org/1999/xhtml" style="display: table-cell; white-space: nowrap; line-height: 1.5; max-width: 200px; text-align: center;"><span class="nodeLabel"><p>Host / test bench</p></span></div></foreignObject></g></g><g class="node default core" id="my-svg-flowchart-IMEM-2" data-look="classic" transform="translate(527.34375, 118)"><rect class="basic label-container" style="fill:#dbe8ff !important;stroke:#4a6fa5 !important" x="-90.859375" y="-27" width="181.71875" height="54"/><g class="label" style="" transform="translate(-60.859375, -12)"><rect/><foreignObject width="121.71875" height="24"><div xmlns="http://www.w3.org/1999/xhtml" style="display: table-cell; white-space: nowrap; line-height: 1.5; max-width: 200px; text-align: center;"><span class="nodeLabel"><p>Program memory</p></span></div></foreignObject></g></g><g class="node default core" id="my-svg-flowchart-FIFO-4" data-look="classic" transform="translate(527.34375, 270)"><rect class="basic label-container" style="fill:#dbe8ff !important;stroke:#4a6fa5 !important" x="-93.046875" y="-51" width="186.09375" height="102"/><g class="label" style="" transform="translate(-63.046875, -36)"><rect/><foreignObject width="126.09375" height="72"><div xmlns="http://www.w3.org/1999/xhtml" style="display: table-cell; white-space: nowrap; line-height: 1.5; max-width: 200px; text-align: center;"><span class="nodeLabel"><p>TX FIFO<br />(PULL waits here<br />while it is empty)</p></span></div></foreignObject></g></g><g class="node default core" id="my-svg-flowchart-EXEC-6" data-look="classic" transform="translate(915.109375, 118)"><rect class="basic label-container" style="fill:#dbe8ff !important;stroke:#4a6fa5 !important" x="-130" y="-75" width="260" height="150"/><g class="label" style="" transform="translate(-100, -60)"><rect/><foreignObject width="200" height="120"><div xmlns="http://www.w3.org/1999/xhtml" style="display: table; white-space: break-spaces; line-height: 1.5; max-width: 200px; text-align: center; width: 200px;"><span class="nodeLabel"><p>Execute<br />one instruction at a time,<br />each holds for 1 + delay cycles<br />(JMP loops the program)</p></span></div></foreignObject></g></g><g class="node default core" id="my-svg-flowchart-SR-8" data-look="classic" transform="translate(915.109375, 270)"><rect class="basic label-container" style="fill:#dbe8ff !important;stroke:#4a6fa5 !important" x="-102.0234375" y="-27" width="204.046875" height="54"/><g class="label" style="" transform="translate(-72.0234375, -12)"><rect/><foreignObject width="144.046875" height="24"><div xmlns="http://www.w3.org/1999/xhtml" style="display: table-cell; white-space: nowrap; line-height: 1.5; max-width: 200px; text-align: center;"><span class="nodeLabel"><p>Shift register (8-bit)</p></span></div></foreignObject></g></g><g class="node default core" id="my-svg-flowchart-PIN-9" data-look="classic" transform="translate(1263.1875, 194)"><rect class="basic label-container" style="fill:#dbe8ff !important;stroke:#4a6fa5 !important" x="-41.109375" y="-27" width="82.21875" height="54"/><g class="label" style="" transform="translate(-11.109375, -12)"><rect/><foreignObject width="22.21875" height="24"><div xmlns="http://www.w3.org/1999/xhtml" style="display: table-cell; white-space: nowrap; line-height: 1.5; max-width: 200px; text-align: center;"><span class="nodeLabel"><p>pin</p></span></div></foreignObject></g></g><g class="node default out" id="my-svg-flowchart-LINE-19" data-look="classic" transform="translate(1497.649528503418, 194)"><g class="basic label-container outer-path"><path d="M-74.875 -43.5 C-30.1927332576445 -43.5, 14.489533484711004 -43.5, 74.875 -43.5 C74.875 -43.5, 74.875 -43.5, 74.875 -43.5 C75.49297534207221 -43.480182733595775, 76.11095068414441 -43.46036546719155, 77.66205456916101 -43.41062458463963 C78.21888780692045 -43.35690755188292, 78.7757210446799 -43.30319051912622, 80.43765653327601 -43.14286560131121 C81.05479017521165 -43.043092220025926, 81.6719238171473 -42.94331883874064, 83.19040034850968 -42.697823329111344 C84.10549360921645 -42.48895926389662, 85.02058686992322 -42.28009519868189, 85.90897440006356 -42.07732654219778 C86.78144735306637 -41.81838114945053, 87.6539203060692 -41.55943575670328, 88.58220748402749 -41.28392499496409 C89.4575778561847 -40.96178060617522, 90.3329482283419 -40.63963621738635, 91.19911471225277 -40.32087894455194 C92.14166864237141 -39.90363827955734, 93.08422257249006 -39.48639761456274, 93.74894265161377 -39.192145753755234 C94.32752742943063 -38.89029844576942, 94.90611220724749 -38.5884511377836, 96.22121351217129 -37.90236362936744 C97.10256986086573 -37.36808023136406, 97.98392620956015 -36.83379683336069, 98.60576820265887 -36.45683256279507 C99.26051977874805 -36.00010620705417, 99.91527135483722 -35.54337985131327, 100.8928080763679 -34.86149255125611 C101.63808598029564 -34.26715325555168, 102.38336388422337 -33.672813959847254, 103.07293519588879 -33.12289918905735 C103.69697144762816 -32.5561659763221, 104.32100769936751 -31.989432763586848, 105.13719095125165 -31.248196729251152 C105.66529223288016 -30.702888798048154, 106.19339351450866 -30.157580866845155, 107.07709287277622 -29.24508872636729 C107.54291498983449 -28.697907561641316, 108.00873710689274 -28.150726396915342, 108.8846694873593 -27.12180638085491 C109.38992971942758 -26.444803700037482, 109.89518995149587 -25.767801019220055, 110.55249307496757 -24.88707471531439 C110.97383888417518 -24.239774405179634, 111.39518469338279 -23.592474095044878, 112.07371019073256 -22.550076721507846 C112.44213458910869 -21.895901895175243, 112.81055898748484 -21.24172706884264, 113.44206982722551 -20.120415625476333 C113.92536363394241 -19.11684569499779, 114.40865744065931 -18.113275764519244, 114.65194910118784 -17.60807542582414 C114.96819203886065 -16.82694925563103, 115.28443497653346 -16.04582308543792, 115.69837635916457 -15.023379867326902 C116.00971429069232 -14.08567962252825, 116.32105222222006 -13.147979377729596, 116.57705160709475 -12.376950018449923 C116.8353964028939 -11.39176934472494, 117.09374119869305 -10.406588670999959, 117.28436417990932 -9.67966062709968 C117.48511479722283 -8.648848635852804, 117.68586541453635 -7.6180366446059296, 117.81740757852859 -6.942595433952013 C117.92834298081148 -6.082202360518913, 118.03927838309436 -5.221809287085813, 118.17399141329012 -4.177001626984165 C118.2139861496821 -3.554051324509071, 118.25398088607406 -2.9311010220339773, 118.35265040472993 -1.3942436243669998 C118.35265040472993 -0.5798837274657019, 118.35265040472993 0.2344761694355959, 118.35265040472993 1.3942436243669891 C118.30517053351524 2.1337809435979187, 118.25769066230056 2.873318262828848, 118.17399141329012 4.177001626984135 C118.07750915315799 4.925298983991767, 117.98102689302584 5.6735963409994, 117.81740757852859 6.942595433951983 C117.69132506992217 7.590002468098287, 117.56524256131576 8.237409502244592, 117.28436417990932 9.679660627099672 C117.09963337570443 10.384119246369913, 116.91490257149954 11.088577865640154, 116.57705160709475 12.376950018449895 C116.37879622451322 12.97406364307989, 116.18054084193172 13.571177267709889, 115.69837635916457 15.023379867326874 C115.3043093185446 15.996733076426155, 114.91024227792462 16.970086285525436, 114.65194910118785 17.60807542582413 C114.31688736851586 18.303838282890105, 113.98182563584388 18.99960113995608, 113.44206982722551 20.120415625476323 C112.96029377580116 20.97585778989552, 112.47851772437683 21.831299954314716, 112.07371019073256 22.550076721507835 C111.50282378861743 23.42711153962029, 110.93193738650231 24.30414635773275, 110.5524930749676 24.887074715314366 C110.06918715314566 25.5346606204805, 109.58588123132371 26.18224652564664, 108.8846694873593 27.121806380854903 C108.39258601044965 27.699835633176033, 107.90050253353999 28.277864885497163, 107.07709287277623 29.245088726367264 C106.36616034477859 29.97918493017089, 105.65522781678095 30.713281133974522, 105.13719095125167 31.24819672925114 C104.32381810670128 31.986880426005627, 103.51044526215091 32.72556412276011, 103.07293519588882 33.12289918905732 C102.56906101152592 33.52472544243157, 102.06518682716302 33.926551695805806, 100.89280807636791 34.861492551256106 C100.08464791302926 35.42523009651153, 99.27648774969062 35.988967641766955, 98.60576820265888 36.45683256279506 C97.75053835763757 36.975277920735415, 96.89530851261625 37.49372327867577, 96.22121351217129 37.90236362936744 C95.46221127411327 38.29833461079817, 94.70320903605526 38.6943055922289, 93.74894265161379 39.19214575375523 C92.8588834051794 39.58614857948228, 91.96882415874501 39.98015140520933, 91.1991147122528 40.32087894455194 C90.6655886324418 40.51722147378341, 90.1320625526308 40.713564003014866, 88.58220748402752 41.283924994964075 C88.00565804612648 41.45504184176335, 87.42910860822546 41.62615868856262, 85.90897440006361 42.077326542197774 C85.21334852063944 42.23609860979325, 84.51772264121526 42.39487067738873, 83.19040034850971 42.697823329111344 C82.37785717868385 42.829189007442395, 81.56531400885801 42.960554685773445, 80.43765653327604 43.1428656013112 C79.48411231004795 43.2348528657213, 78.53056808681987 43.3268401301314, 77.66205456916101 43.41062458463963 C77.05476352478568 43.43009922641244, 76.44747248041035 43.44957386818525, 74.87500000000001 43.5 C74.87500000000001 43.5, 74.87500000000001 43.5, 74.875 43.5 C35.268263776013946 43.5, -4.338472447972109 43.5, -74.87499999999999 43.5 C-75.68263862331338 43.474100601323556, -76.49027724662676 43.448201202647105, -77.66205456916099 43.41062458463963 C-78.46084216330772 43.33356650611493, -79.25962975745445 43.25650842759023, -80.43765653327603 43.1428656013112 C-81.29167020177674 43.00479529436292, -82.14568387027744 42.86672498741464, -83.1904003485097 42.697823329111344 C-84.26745218147299 42.451993276657525, -85.34450401443627 42.2061632242037, -85.90897440006356 42.07732654219778 C-86.62908775467425 41.86360067850146, -87.34920110928493 41.649874814805145, -88.58220748402748 41.283924994964096 C-89.4507210726144 40.96430396591251, -90.31923466120132 40.64468293686091, -91.19911471225278 40.32087894455194 C-92.1625573331387 39.894391475795665, -93.1259999540246 39.467904007039394, -93.74894265161377 39.192145753755234 C-94.49537819414154 38.80273080933328, -95.24181373666929 38.41331586491134, -96.22121351217127 37.90236362936745 C-96.74027123992671 37.587707784480315, -97.25932896768214 37.27305193959319, -98.60576820265884 36.456832562795086 C-99.13156940205612 36.090056407662615, -99.65737060145338 35.72328025253015, -100.89280807636788 34.86149255125612 C-101.5783587341141 34.31478414497268, -102.26390939186034 33.768075738689234, -103.07293519588879 33.12289918905736 C-103.5860242426078 32.656925292419395, -104.09911328932684 32.19095139578144, -105.13719095125164 31.24819672925117 C-105.58729288350392 30.783429530144797, -106.03739481575622 30.318662331038425, -107.07709287277623 29.245088726367282 C-107.77273085160027 28.427952773518232, -108.46836883042431 27.610816820669186, -108.88466948735929 27.121806380854917 C-109.48798118997055 26.31342366218263, -110.09129289258182 25.505040943510338, -110.55249307496757 24.887074715314395 C-111.08925804958575 24.062459572723473, -111.62602302420392 23.237844430132547, -112.07371019073254 22.550076721507864 C-112.38433837259197 21.998524930102235, -112.6949665544514 21.446973138696602, -113.44206982722551 20.120415625476337 C-113.72017739288611 19.54291931483343, -113.99828495854673 18.965423004190523, -114.65194910118784 17.608075425824147 C-115.05353466288564 16.61615132430192, -115.45512022458345 15.624227222779695, -115.69837635916457 15.023379867326907 C-115.95954529740419 14.236780636968499, -116.22071423564383 13.450181406610092, -116.57705160709475 12.37695001844991 C-116.83169268286382 11.405893234402075, -117.08633375863289 10.434836450354242, -117.28436417990932 9.679660627099686 C-117.39110815204627 9.131552890522917, -117.49785212418324 8.583445153946148, -117.81740757852859 6.942595433952017 C-117.92863176283788 6.079962624148557, -118.03985594714717 5.217329814345097, -118.17399141329011 4.17700162698419 C-118.22819692039985 3.332707099852156, -118.2824024275096 2.4884125727201223, -118.35265040472993 1.394243624367005 C-118.35265040472993 0.29395879867075747, -118.35265040472993 -0.8063260270254902, -118.35265040472993 -1.394243624366984 C-118.30838010114597 -2.0837893370329224, -118.26410979756203 -2.773335049698861, -118.17399141329012 -4.177001626984129 C-118.06008671245469 -5.060423993636458, -117.94618201161926 -5.943846360288786, -117.81740757852859 -6.942595433951997 C-117.69769848596664 -7.557276323731908, -117.57798939340469 -8.171957213511819, -117.28436417990932 -9.679660627099667 C-117.02339142649596 -10.674862842171605, -116.7624186730826 -11.670065057243544, -116.57705160709475 -12.37695001844989 C-116.34450572949876 -13.077341150615029, -116.1119598519028 -13.777732282780168, -115.6983763591646 -15.023379867326852 C-115.282358196374 -16.050952772583642, -114.8663400335834 -17.078525677840428, -114.65194910118785 -17.608075425824126 C-114.20349486510887 -18.53930024242564, -113.75504062902988 -19.470525059027153, -113.44206982722551 -20.12041562547632 C-113.13772883068788 -20.660803882696555, -112.83338783415026 -21.201192139916788, -112.07371019073256 -22.55007672150785 C-111.59331828673841 -23.28808768933123, -111.11292638274428 -24.026098657154613, -110.55249307496757 -24.88707471531438 C-110.13897031277848 -25.441157543949124, -109.7254475505894 -25.995240372583865, -108.8846694873593 -27.121806380854903 C-108.34279828841512 -27.758319124479417, -107.80092708947096 -28.394831868103932, -107.07709287277623 -29.245088726367264 C-106.62067090117135 -29.716381884990074, -106.16424892956647 -30.187675043612884, -105.13719095125168 -31.248196729251127 C-104.48433969068033 -31.841098970604232, -103.83148843010899 -32.43400121195734, -103.07293519588883 -33.12289918905732 C-102.48647978730104 -33.59058177117225, -101.90002437871323 -34.058264353287186, -100.89280807636791 -34.861492551256106 C-100.14069538786505 -35.386133804322164, -99.3885826993622 -35.910775057388214, -98.6057682026589 -36.45683256279505 C-97.89266754637333 -36.88911837127997, -97.17956689008777 -37.32140417976489, -96.2212135121713 -37.902363629367436 C-95.71732399390834 -38.16524246828858, -95.21343447564537 -38.428121307209736, -93.74894265161379 -39.19214575375523 C-93.16457490065983 -39.450828022449116, -92.58020714970586 -39.709510291143005, -91.1991147122528 -40.320878944551936 C-90.4410204573455 -40.59986463810429, -89.68292620243821 -40.87885033165665, -88.58220748402753 -41.283924994964075 C-87.92299878220278 -41.47957467740857, -87.26379008037803 -41.675224359853075, -85.90897440006361 -42.07732654219777 C-85.04787648471832 -42.27386652218629, -84.18677856937303 -42.47040650217482, -83.19040034850971 -42.69782332911134 C-82.09971231095874 -42.87415731261052, -81.00902427340775 -43.050491296109705, -80.43765653327604 -43.1428656013112 C-79.79723365624508 -43.20464642603718, -79.15681077921411 -43.26642725076316, -77.66205456916101 -43.41062458463963 C-76.597949372804 -43.44474836713168, -75.53384417644699 -43.47887214962374, -74.87500000000001 -43.5 C-74.87500000000001 -43.5, -74.875 -43.5, -74.875 -43.5" stroke="none" stroke-width="0" fill="#dff5e1" style="fill:#dff5e1 !important;stroke:#3a8f4a !important"/><path d="M-74.875 -43.5 C-36.174756102678764 -43.5, 2.5254877946424727 -43.5, 74.875 -43.5 M-74.875 -43.5 C-39.45242728780106 -43.5, -4.029854575602116 -43.5, 74.875 -43.5 M74.875 -43.5 C74.875 -43.5, 74.875 -43.5, 74.875 -43.5 M74.875 -43.5 C74.875 -43.5, 74.875 -43.5, 74.875 -43.5 M74.875 -43.5 C75.76382806051224 -43.47149701409824, 76.65265612102446 -43.44299402819648, 77.66205456916101 -43.41062458463963 M74.875 -43.5 C75.5022324573104 -43.47988587592797, 76.12946491462081 -43.45977175185594, 77.66205456916101 -43.41062458463963 M77.66205456916101 -43.41062458463963 C78.44412142430254 -43.33517953569713, 79.22618827944405 -43.25973448675463, 80.43765653327601 -43.14286560131121 M77.66205456916101 -43.41062458463963 C78.48907817655541 -43.3308426118757, 79.31610178394979 -43.25106063911178, 80.43765653327601 -43.14286560131121 M80.43765653327601 -43.14286560131121 C81.11652940165828 -43.03311070068889, 81.79540227004054 -42.92335580006657, 83.19040034850968 -42.697823329111344 M80.43765653327601 -43.14286560131121 C81.50484520478285 -42.97033081307374, 82.57203387628968 -42.79779602483626, 83.19040034850968 -42.697823329111344 M83.19040034850968 -42.697823329111344 C84.13408793644243 -42.482432795302714, 85.07777552437517 -42.26704226149408, 85.90897440006356 -42.07732654219778 M83.19040034850968 -42.697823329111344 C84.07708487971136 -42.49544337102187, 84.96376941091306 -42.2930634129324, 85.90897440006356 -42.07732654219778 M85.90897440006356 -42.07732654219778 C86.56166627595856 -41.88361101948171, 87.21435815185357 -41.689895496765644, 88.58220748402749 -41.28392499496409 M85.90897440006356 -42.07732654219778 C86.55589355072509 -41.885324334029356, 87.20281270138663 -41.693322125860924, 88.58220748402749 -41.28392499496409 M88.58220748402749 -41.28392499496409 C89.24283230545102 -41.040808953931325, 89.90345712687453 -40.79769291289856, 91.19911471225277 -40.32087894455194 M88.58220748402749 -41.28392499496409 C89.58890636124801 -40.91345050232453, 90.59560523846851 -40.54297600968497, 91.19911471225277 -40.32087894455194 M91.19911471225277 -40.32087894455194 C91.9231675280846 -40.00036224124685, 92.64722034391644 -39.67984553794175, 93.74894265161377 -39.192145753755234 M91.19911471225277 -40.32087894455194 C91.77598985093925 -40.06551343304842, 92.35286498962574 -39.810147921544896, 93.74894265161377 -39.192145753755234 M93.74894265161377 -39.192145753755234 C94.51105611813847 -38.79455164642627, 95.27316958466317 -38.396957539097315, 96.22121351217129 -37.90236362936744 M93.74894265161377 -39.192145753755234 C94.35479803289397 -38.87607138941025, 94.96065341417415 -38.55999702506527, 96.22121351217129 -37.90236362936744 M96.22121351217129 -37.90236362936744 C97.09385446106393 -37.37336355794128, 97.96649540995658 -36.84436348651512, 98.60576820265887 -36.45683256279507 M96.22121351217129 -37.90236362936744 C96.8459279962321 -37.52365803789997, 97.47064248029291 -37.1449524464325, 98.60576820265887 -36.45683256279507 M98.60576820265887 -36.45683256279507 C99.33878051023119 -35.94551490862399, 100.07179281780351 -35.434197254452904, 100.8928080763679 -34.86149255125611 M98.60576820265887 -36.45683256279507 C99.38325421649002 -35.914491976373554, 100.16074023032115 -35.37215138995203, 100.8928080763679 -34.86149255125611 M100.8928080763679 -34.86149255125611 C101.49723291780977 -34.379479824626756, 102.10165775925164 -33.8974670979974, 103.07293519588879 -33.12289918905735 M100.8928080763679 -34.86149255125611 C101.60108017813239 -34.29666439801111, 102.3093522798969 -33.731836244766114, 103.07293519588879 -33.12289918905735 M103.07293519588879 -33.12289918905735 C103.80231587579944 -32.460494953917774, 104.53169655571008 -31.798090718778198, 105.13719095125165 -31.248196729251152 M103.07293519588879 -33.12289918905735 C103.50818666553873 -32.727615320444094, 103.94343813518867 -32.33233145183084, 105.13719095125165 -31.248196729251152 M105.13719095125165 -31.248196729251152 C105.55041303286357 -30.821511003822998, 105.96363511447551 -30.394825278394844, 107.07709287277622 -29.24508872636729 M105.13719095125165 -31.248196729251152 C105.85717564136371 -30.50475342486807, 106.57716033147575 -29.761310120484993, 107.07709287277622 -29.24508872636729 M107.07709287277622 -29.24508872636729 C107.55069819696772 -28.688764963665587, 108.02430352115921 -28.132441200963886, 108.8846694873593 -27.12180638085491 M107.07709287277622 -29.24508872636729 C107.6092475175187 -28.61998960019569, 108.14140216226116 -27.994890474024093, 108.8846694873593 -27.12180638085491 M108.8846694873593 -27.12180638085491 C109.48853619245656 -26.312680009413153, 110.09240289755381 -25.503553637971397, 110.55249307496757 -24.88707471531439 M108.8846694873593 -27.12180638085491 C109.51846127866084 -26.272583120130847, 110.15225306996238 -25.423359859406784, 110.55249307496757 -24.88707471531439 M110.55249307496757 -24.88707471531439 C111.09845998386703 -24.048322930602076, 111.64442689276649 -23.209571145889758, 112.07371019073256 -22.550076721507846 M110.55249307496757 -24.88707471531439 C110.94037489974154 -24.291184071607724, 111.32825672451551 -23.695293427901056, 112.07371019073256 -22.550076721507846 M112.07371019073256 -22.550076721507846 C112.37446540611475 -22.0160553818288, 112.67522062149695 -21.48203404214975, 113.44206982722551 -20.120415625476333 M112.07371019073256 -22.550076721507846 C112.52329726490508 -21.751789345686632, 112.97288433907761 -20.95350196986542, 113.44206982722551 -20.120415625476333 M113.44206982722551 -20.120415625476333 C113.83034759821959 -19.31414852619371, 114.21862536921367 -18.50788142691108, 114.65194910118784 -17.60807542582414 M113.44206982722551 -20.120415625476333 C113.756887209391 -19.466690595396802, 114.07170459155648 -18.81296556531727, 114.65194910118784 -17.60807542582414 M114.65194910118784 -17.60807542582414 C115.03412141792568 -16.66410241468261, 115.4162937346635 -15.720129403541081, 115.69837635916457 -15.023379867326902 M114.65194910118784 -17.60807542582414 C115.01711503785423 -16.70610850225507, 115.38228097452061 -15.804141578686004, 115.69837635916457 -15.023379867326902 M115.69837635916457 -15.023379867326902 C115.88750827158009 -14.453744681209322, 116.07664018399561 -13.88410949509174, 116.57705160709475 -12.376950018449923 M115.69837635916457 -15.023379867326902 C115.90387689743837 -14.404444988110557, 116.10937743571216 -13.785510108894211, 116.57705160709475 -12.376950018449923 M116.57705160709475 -12.376950018449923 C116.72205008402531 -11.824007983176251, 116.86704856095587 -11.27106594790258, 117.28436417990932 -9.67966062709968 M116.57705160709475 -12.376950018449923 C116.76055912461624 -11.677156321479284, 116.94406664213771 -10.977362624508643, 117.28436417990932 -9.67966062709968 M117.28436417990932 -9.67966062709968 C117.48059001219383 -8.672082450663115, 117.67681584447833 -7.66450427422655, 117.81740757852859 -6.942595433952013 M117.28436417990932 -9.67966062709968 C117.43766021824959 -8.892517869351558, 117.59095625658988 -8.105375111603436, 117.81740757852859 -6.942595433952013 M117.81740757852859 -6.942595433952013 C117.9337404347035 -6.040340773980242, 118.0500732908784 -5.1380861140084715, 118.17399141329012 -4.177001626984165 M117.81740757852859 -6.942595433952013 C117.89264729078204 -6.359051083475969, 117.96788700303549 -5.775506732999925, 118.17399141329012 -4.177001626984165 M118.17399141329012 -4.177001626984165 C118.2196514533956 -3.465809646220305, 118.26531149350109 -2.7546176654564456, 118.35265040472993 -1.3942436243669998 M118.17399141329012 -4.177001626984165 C118.23416782488071 -3.2397054429355676, 118.2943442364713 -2.3024092588869705, 118.35265040472993 -1.3942436243669998 M118.35265040472993 -1.3942436243669998 C118.35265040472993 -0.6268263992637537, 118.35265040472993 0.14059082583949234, 118.35265040472993 1.3942436243669891 M118.35265040472993 -1.3942436243669998 C118.35265040472993 -0.7770014563574689, 118.35265040472993 -0.15975928834793796, 118.35265040472993 1.3942436243669891 M118.35265040472993 1.3942436243669891 C118.29701286716814 2.2608431817039945, 118.24137532960633 3.1274427390409993, 118.17399141329012 4.177001626984135 M118.35265040472993 1.3942436243669891 C118.29983957648585 2.2168149024017043, 118.24702874824179 3.03938618043642, 118.17399141329012 4.177001626984135 M118.17399141329012 4.177001626984135 C118.08943407572701 4.832811639388746, 118.00487673816389 5.488621651793356, 117.81740757852859 6.942595433951983 M118.17399141329012 4.177001626984135 C118.06425337707451 5.028108165646209, 117.95451534085888 5.879214704308284, 117.81740757852859 6.942595433951983 M117.81740757852859 6.942595433951983 C117.65209717446241 7.791429420465497, 117.48678677039624 8.640263406979011, 117.28436417990932 9.679660627099672 M117.81740757852859 6.942595433951983 C117.66665164737282 7.716695278159532, 117.51589571621705 8.490795122367082, 117.28436417990932 9.679660627099672 M117.28436417990932 9.679660627099672 C117.0950192244663 10.401715004826695, 116.9056742690233 11.123769382553718, 116.57705160709475 12.376950018449895 M117.28436417990932 9.679660627099672 C117.12395576867114 10.291367420596066, 116.96354735743296 10.903074214092461, 116.57705160709475 12.376950018449895 M116.57705160709475 12.376950018449895 C116.33753085420999 13.098348363689382, 116.09801010132522 13.81974670892887, 115.69837635916457 15.023379867326874 M116.57705160709475 12.376950018449895 C116.38880625369967 12.943915030051901, 116.2005609003046 13.510880041653909, 115.69837635916457 15.023379867326874 M115.69837635916457 15.023379867326874 C115.32776242556692 15.938803448646054, 114.95714849196926 16.854227029965234, 114.65194910118785 17.60807542582413 M115.69837635916457 15.023379867326874 C115.35315905885709 15.876073273408826, 115.0079417585496 16.72876667949078, 114.65194910118785 17.60807542582413 M114.65194910118785 17.60807542582413 C114.26430663108121 18.413023309220723, 113.87666416097457 19.217971192617316, 113.44206982722551 20.120415625476323 M114.65194910118785 17.60807542582413 C114.20509248885926 18.53598274252426, 113.75823587653068 19.463890059224397, 113.44206982722551 20.120415625476323 M113.44206982722551 20.120415625476323 C113.08181708478345 20.760080849228082, 112.72156434234138 21.399746072979845, 112.07371019073256 22.550076721507835 M113.44206982722551 20.120415625476323 C113.13714478210755 20.661840920092246, 112.83221973698961 21.203266214708172, 112.07371019073256 22.550076721507835 M112.07371019073256 22.550076721507835 C111.54610678258271 23.360617237778342, 111.01850337443288 24.171157754048853, 110.5524930749676 24.887074715314366 M112.07371019073256 22.550076721507835 C111.49354154835804 23.44137155328924, 110.91337290598351 24.332666385070645, 110.5524930749676 24.887074715314366 M110.5524930749676 24.887074715314366 C110.17676107527036 25.390521365019325, 109.80102907557311 25.89396801472428, 108.8846694873593 27.121806380854903 M110.5524930749676 24.887074715314366 C109.95562708167452 25.686820770716487, 109.35876108838144 26.486566826118608, 108.8846694873593 27.121806380854903 M108.8846694873593 27.121806380854903 C108.2797119532337 27.832423923497682, 107.67475441910811 28.543041466140462, 107.07709287277623 29.245088726367264 M108.8846694873593 27.121806380854903 C108.3553424935614 27.743583987329114, 107.8260154997635 28.36536159380333, 107.07709287277623 29.245088726367264 M107.07709287277623 29.245088726367264 C106.58269003986071 29.755600242580023, 106.08828720694518 30.266111758792782, 105.13719095125167 31.24819672925114 M107.07709287277623 29.245088726367264 C106.33705422766005 30.009239385752448, 105.59701558254385 30.773390045137635, 105.13719095125167 31.24819672925114 M105.13719095125167 31.24819672925114 C104.39836430078108 31.91917954492657, 103.65953765031048 32.590162360602, 103.07293519588882 33.12289918905732 M105.13719095125167 31.24819672925114 C104.68902531797143 31.655208899583382, 104.2408596846912 32.06222106991562, 103.07293519588882 33.12289918905732 M103.07293519588882 33.12289918905732 C102.39238691971322 33.66561832915716, 101.71183864353762 34.208337469256996, 100.89280807636791 34.861492551256106 M103.07293519588882 33.12289918905732 C102.23480318768993 33.79128716196651, 101.39667117949104 34.4596751348757, 100.89280807636791 34.861492551256106 M100.89280807636791 34.861492551256106 C100.37923895458601 35.21973613856219, 99.86566983280413 35.57797972586827, 98.60576820265888 36.45683256279506 M100.89280807636791 34.861492551256106 C100.07325581514863 35.43317673083709, 99.25370355392934 36.004860910418074, 98.60576820265888 36.45683256279506 M98.60576820265888 36.45683256279506 C98.09222043940983 36.76814823481828, 97.57867267616078 37.0794639068415, 96.22121351217129 37.90236362936744 M98.60576820265888 36.45683256279506 C98.07392964504506 36.779236221850844, 97.54209108743123 37.101639880906625, 96.22121351217129 37.90236362936744 M96.22121351217129 37.90236362936744 C95.58383829756272 38.23488187057042, 94.94646308295417 38.567400111773395, 93.74894265161379 39.19214575375523 M96.22121351217129 37.90236362936744 C95.34186693224149 38.36111817686846, 94.46252035231169 38.81987272436947, 93.74894265161379 39.19214575375523 M93.74894265161379 39.19214575375523 C93.03536153090471 39.50802694826128, 92.32178041019563 39.82390814276733, 91.1991147122528 40.32087894455194 M93.74894265161379 39.19214575375523 C93.0397839869623 39.50606925815208, 92.33062532231082 39.819992762548935, 91.1991147122528 40.32087894455194 M91.1991147122528 40.32087894455194 C90.3689533239356 40.62638600938042, 89.5387919356184 40.931893074208894, 88.58220748402752 41.283924994964075 M91.1991147122528 40.32087894455194 C90.34424805242895 40.63547777766789, 89.48938139260511 40.95007661078384, 88.58220748402752 41.283924994964075 M88.58220748402752 41.283924994964075 C87.5794645298045 41.58153384027229, 86.57672157558149 41.87914268558052, 85.90897440006361 42.077326542197774 M88.58220748402752 41.283924994964075 C87.57487024045145 41.582897401236366, 86.56753299687537 41.88186980750866, 85.90897440006361 42.077326542197774 M85.90897440006361 42.077326542197774 C85.16751802560375 42.24655912121322, 84.4260616511439 42.41579170022866, 83.19040034850971 42.697823329111344 M85.90897440006361 42.077326542197774 C84.97176936234709 42.29123747622214, 84.03456432463057 42.50514841024651, 83.19040034850971 42.697823329111344 M83.19040034850971 42.697823329111344 C82.19006022154785 42.85955056308499, 81.189720094586 43.02127779705863, 80.43765653327604 43.1428656013112 M83.19040034850971 42.697823329111344 C82.38952193084472 42.82730314077453, 81.58864351317973 42.95678295243771, 80.43765653327604 43.1428656013112 M80.43765653327604 43.1428656013112 C79.3307423690526 43.24964827947478, 78.22382820482916 43.356430957638366, 77.66205456916101 43.41062458463963 M80.43765653327604 43.1428656013112 C79.78363790978483 43.20595799134692, 79.12961928629362 43.26905038138265, 77.66205456916101 43.41062458463963 M77.66205456916101 43.41062458463963 C76.85748942949515 43.43642542267767, 76.05292428982926 43.46222626071572, 74.87500000000001 43.5 M77.66205456916101 43.41062458463963 C76.90360528592993 43.43494657692088, 76.14515600269884 43.45926856920212, 74.87500000000001 43.5 M74.87500000000001 43.5 C74.87500000000001 43.5, 74.875 43.5, 74.875 43.5 M74.87500000000001 43.5 C74.87500000000001 43.5, 74.875 43.5, 74.875 43.5 M74.875 43.5 C21.017831662271306 43.5, -32.83933667545739 43.5, -74.87499999999999 43.5 M74.875 43.5 C35.519167885626 43.5, -3.836664228748006 43.5, -74.87499999999999 43.5 M-74.87499999999999 43.5 C-75.4993938580692 43.47997690428063, -76.12378771613841 43.45995380856127, -77.66205456916099 43.41062458463963 M-74.87499999999999 43.5 C-75.87269995455894 43.46800570436245, -76.87039990911789 43.436011408724895, -77.66205456916099 43.41062458463963 M-77.66205456916099 43.41062458463963 C-78.33472743504598 43.34573264227519, -79.00740030093095 43.28084069991075, -80.43765653327603 43.1428656013112 M-77.66205456916099 43.41062458463963 C-78.4079274675648 43.33867112317402, -79.15380036596864 43.2667176617084, -80.43765653327603 43.1428656013112 M-80.43765653327603 43.1428656013112 C-81.02056450120956 43.04862556157451, -81.6034724691431 42.95438552183783, -83.1904003485097 42.697823329111344 M-80.43765653327603 43.1428656013112 C-81.08122708919525 43.03881810479438, -81.72479764511448 42.93477060827757, -83.1904003485097 42.697823329111344 M-83.1904003485097 42.697823329111344 C-84.02826921887274 42.506585227056334, -84.86613808923578 42.315347125001324, -85.90897440006356 42.07732654219778 M-83.1904003485097 42.697823329111344 C-83.8991166021973 42.536063469012916, -84.6078328558849 42.37430360891449, -85.90897440006356 42.07732654219778 M-85.90897440006356 42.07732654219778 C-86.83889611107341 41.80133065962873, -87.76881782208326 41.525334777059676, -88.58220748402748 41.283924994964096 M-85.90897440006356 42.07732654219778 C-86.87857300361924 41.78955476618938, -87.84817160717492 41.50178299018099, -88.58220748402748 41.283924994964096 M-88.58220748402748 41.283924994964096 C-89.29891180261538 41.02017118058165, -90.01561612120328 40.75641736619921, -91.19911471225278 40.32087894455194 M-88.58220748402748 41.283924994964096 C-89.57071334146647 40.920145701778566, -90.55921919890547 40.55636640859304, -91.19911471225278 40.32087894455194 M-91.19911471225278 40.32087894455194 C-92.20545852132348 39.8754003924048, -93.21180233039416 39.42992184025765, -93.74894265161377 39.192145753755234 M-91.19911471225278 40.32087894455194 C-92.16503471392035 39.89329481281252, -93.13095471558792 39.4657106810731, -93.74894265161377 39.192145753755234 M-93.74894265161377 39.192145753755234 C-94.33171848812721 38.88811197313191, -94.91449432464066 38.58407819250859, -96.22121351217127 37.90236362936745 M-93.74894265161377 39.192145753755234 C-94.26134469249916 38.924825937234495, -94.77374673338456 38.65750612071376, -96.22121351217127 37.90236362936745 M-96.22121351217127 37.90236362936745 C-97.1408350809539 37.344883630075216, -98.06045664973654 36.787403630782975, -98.60576820265884 36.456832562795086 M-96.22121351217127 37.90236362936745 C-96.81712737602693 37.54111714311957, -97.4130412398826 37.17987065687169, -98.60576820265884 36.456832562795086 M-98.60576820265884 36.456832562795086 C-99.06866736975343 36.13393414241188, -99.531566536848 35.81103572202868, -100.89280807636788 34.86149255125612 M-98.60576820265884 36.456832562795086 C-99.42278156344922 35.88691941024608, -100.23979492423959 35.31700625769707, -100.89280807636788 34.86149255125612 M-100.89280807636788 34.86149255125612 C-101.68056092823694 34.233280614874324, -102.468313780106 33.605068678492536, -103.07293519588879 33.12289918905736 M-100.89280807636788 34.86149255125612 C-101.56140383614274 34.32830522491606, -102.2299995959176 33.795117898575995, -103.07293519588879 33.12289918905736 M-103.07293519588879 33.12289918905736 C-103.61105463489395 32.63419335241302, -104.14917407389909 32.145487515768686, -105.13719095125164 31.24819672925117 M-103.07293519588879 33.12289918905736 C-103.6052114323563 32.63949999435505, -104.1374876688238 32.156100799652734, -105.13719095125164 31.24819672925117 M-105.13719095125164 31.24819672925117 C-105.66310276190649 30.705149606587376, -106.18901457256135 30.162102483923583, -107.07709287277623 29.245088726367282 M-105.13719095125164 31.24819672925117 C-105.55508432856406 30.81668750749174, -105.97297770587649 30.38517828573231, -107.07709287277623 29.245088726367282 M-107.07709287277623 29.245088726367282 C-107.52388525704178 28.720260968602094, -107.97067764130733 28.195433210836903, -108.88466948735929 27.121806380854917 M-107.07709287277623 29.245088726367282 C-107.45850021910222 28.797065954679958, -107.8399075654282 28.349043182992634, -108.88466948735929 27.121806380854917 M-108.88466948735929 27.121806380854917 C-109.53811827831717 26.24624453138087, -110.19156706927505 25.37068268190683, -110.55249307496757 24.887074715314395 M-108.88466948735929 27.121806380854917 C-109.4183086261641 26.406778550382125, -109.95194776496892 25.691750719909333, -110.55249307496757 24.887074715314395 M-110.55249307496757 24.887074715314395 C-111.0520954570465 24.1195512944171, -111.55169783912545 23.35202787351981, -112.07371019073254 22.550076721507864 M-110.55249307496757 24.887074715314395 C-110.92927733198127 24.30823291580171, -111.30606158899496 23.729391116289026, -112.07371019073254 22.550076721507864 M-112.07371019073254 22.550076721507864 C-112.5896727800625 21.6339328972749, -113.10563536939246 20.717789073041935, -113.44206982722551 20.120415625476337 M-112.07371019073254 22.550076721507864 C-112.39968368419505 21.971277775469666, -112.72565717765755 21.392478829431468, -113.44206982722551 20.120415625476337 M-113.44206982722551 20.120415625476337 C-113.77653223606893 19.425897277163845, -114.11099464491235 18.731378928851356, -114.65194910118784 17.608075425824147 M-113.44206982722551 20.120415625476337 C-113.78300350288477 19.412459553157834, -114.12393717854403 18.704503480839335, -114.65194910118784 17.608075425824147 M-114.65194910118784 17.608075425824147 C-114.89415439885926 17.009823657854863, -115.13635969653069 16.411571889885582, -115.69837635916457 15.023379867326907 M-114.65194910118784 17.608075425824147 C-115.01857700649323 16.702497411451482, -115.38520491179862 15.796919397078813, -115.69837635916457 15.023379867326907 M-115.69837635916457 15.023379867326907 C-116.02992051961695 14.024821680432611, -116.36146468006933 13.026263493538314, -116.57705160709475 12.37695001844991 M-115.69837635916457 15.023379867326907 C-116.04785777941822 13.970797511825433, -116.39733919967188 12.918215156323958, -116.57705160709475 12.37695001844991 M-116.57705160709475 12.37695001844991 C-116.80145341742384 11.521208659305216, -117.02585522775296 10.66546730016052, -117.28436417990932 9.679660627099686 M-116.57705160709475 12.37695001844991 C-116.82093964986665 11.446899209614264, -117.06482769263854 10.516848400778617, -117.28436417990932 9.679660627099686 M-117.28436417990932 9.679660627099686 C-117.4477311958622 8.84080552781267, -117.6110982118151 8.001950428525655, -117.81740757852859 6.942595433952017 M-117.28436417990932 9.679660627099686 C-117.40678891133622 9.051035505698712, -117.52921364276312 8.422410384297736, -117.81740757852859 6.942595433952017 M-117.81740757852859 6.942595433952017 C-117.89630607524683 6.330674273675787, -117.97520457196505 5.718753113399557, -118.17399141329011 4.17700162698419 M-117.81740757852859 6.942595433952017 C-117.95732507314136 5.8574229755697385, -118.09724256775414 4.7722505171874605, -118.17399141329011 4.17700162698419 M-118.17399141329011 4.17700162698419 C-118.24278971208432 3.105412590277182, -118.31158801087854 2.033823553570175, -118.35265040472993 1.394243624367005 M-118.17399141329011 4.17700162698419 C-118.22111468841169 3.4430185797425272, -118.26823796353328 2.709035532500865, -118.35265040472993 1.394243624367005 M-118.35265040472993 1.394243624367005 C-118.35265040472993 0.7831867419655856, -118.35265040472993 0.17212985956416604, -118.35265040472993 -1.394243624366984 M-118.35265040472993 1.394243624367005 C-118.35265040472993 0.8103096144941198, -118.35265040472993 0.2263756046212344, -118.35265040472993 -1.394243624366984 M-118.35265040472993 -1.394243624366984 C-118.29872163554556 -2.234227734932571, -118.24479286636118 -3.0742118454981577, -118.17399141329012 -4.177001626984129 M-118.35265040472993 -1.394243624366984 C-118.29524158651002 -2.2884323077061373, -118.2378327682901 -3.182620991045291, -118.17399141329012 -4.177001626984129 M-118.17399141329012 -4.177001626984129 C-118.08832271560046 -4.841431129067437, -118.00265401791077 -5.505860631150745, -117.81740757852859 -6.942595433951997 M-118.17399141329012 -4.177001626984129 C-118.06771520360667 -5.0012589226776845, -117.96143899392321 -5.82551621837124, -117.81740757852859 -6.942595433951997 M-117.81740757852859 -6.942595433951997 C-117.605506838508 -8.030660948720383, -117.39360609848742 -9.11872646348877, -117.28436417990932 -9.679660627099667 M-117.81740757852859 -6.942595433951997 C-117.65479979083312 -7.777552056600094, -117.49219200313766 -8.612508679248192, -117.28436417990932 -9.679660627099667 M-117.28436417990932 -9.679660627099667 C-117.14046809288077 -10.228398771898185, -116.9965720058522 -10.777136916696701, -116.57705160709475 -12.37695001844989 M-117.28436417990932 -9.679660627099667 C-117.06876854023405 -10.501820240922807, -116.85317290055877 -11.32397985474595, -116.57705160709475 -12.37695001844989 M-116.57705160709475 -12.37695001844989 C-116.27760826047965 -13.278825668636378, -115.97816491386457 -14.180701318822868, -115.6983763591646 -15.023379867326852 M-116.57705160709475 -12.37695001844989 C-116.2870142672903 -13.250496274766366, -115.99697692748587 -14.124042531082841, -115.6983763591646 -15.023379867326852 M-115.6983763591646 -15.023379867326852 C-115.36047347308471 -15.858006528852039, -115.02257058700484 -16.692633190377226, -114.65194910118785 -17.608075425824126 M-115.6983763591646 -15.023379867326852 C-115.34958445423005 -15.88490261594789, -115.00079254929553 -16.74642536456893, -114.65194910118785 -17.608075425824126 M-114.65194910118785 -17.608075425824126 C-114.20300471826756 -18.540318042829064, -113.75406033534728 -19.472560659834, -113.44206982722551 -20.12041562547632 M-114.65194910118785 -17.608075425824126 C-114.35560834103391 -18.223433354960296, -114.05926758087996 -18.83879128409647, -113.44206982722551 -20.12041562547632 M-113.44206982722551 -20.12041562547632 C-112.96617876295423 -20.965408399285703, -112.49028769868293 -21.810401173095087, -112.07371019073256 -22.55007672150785 M-113.44206982722551 -20.12041562547632 C-112.95129926748334 -20.99182845020656, -112.46052870774116 -21.863241274936804, -112.07371019073256 -22.55007672150785 M-112.07371019073256 -22.55007672150785 C-111.6684511349991 -23.17266345840814, -111.26319207926566 -23.79525019530843, -110.55249307496757 -24.88707471531438 M-112.07371019073256 -22.55007672150785 C-111.73869382330547 -23.064751826366727, -111.40367745587837 -23.579426931225605, -110.55249307496757 -24.88707471531438 M-110.55249307496757 -24.88707471531438 C-110.07610283667152 -25.525394234587562, -109.59971259837546 -26.163713753860748, -108.8846694873593 -27.121806380854903 M-110.55249307496757 -24.88707471531438 C-109.98108051023459 -25.652715495301017, -109.40966794550162 -26.41835627528765, -108.8846694873593 -27.121806380854903 M-108.8846694873593 -27.121806380854903 C-108.3588096822982 -27.739511230150242, -107.8329498772371 -28.357216079445585, -107.07709287277623 -29.245088726367264 M-108.8846694873593 -27.121806380854903 C-108.41418481135126 -27.674464452630406, -107.94370013534322 -28.22712252440591, -107.07709287277623 -29.245088726367264 M-107.07709287277623 -29.245088726367264 C-106.64096782669753 -29.695423642975722, -106.20484278061882 -30.145758559584184, -105.13719095125168 -31.248196729251127 M-107.07709287277623 -29.245088726367264 C-106.56807238001808 -29.770694176499735, -106.05905188725991 -30.29629962663221, -105.13719095125168 -31.248196729251127 M-105.13719095125168 -31.248196729251127 C-104.5643117260437 -31.768470484031333, -103.99143250083571 -32.28874423881154, -103.07293519588883 -33.12289918905732 M-105.13719095125168 -31.248196729251127 C-104.71276753028705 -31.633646850542853, -104.28834410932242 -32.01909697183458, -103.07293519588883 -33.12289918905732 M-103.07293519588883 -33.12289918905732 C-102.41166069598023 -33.65024800548095, -101.75038619607164 -34.17759682190457, -100.89280807636791 -34.861492551256106 M-103.07293519588883 -33.12289918905732 C-102.4285557264985 -33.636774668238274, -101.78417625710819 -34.15065014741922, -100.89280807636791 -34.861492551256106 M-100.89280807636791 -34.861492551256106 C-100.09407797534571 -35.41865209326039, -99.29534787432353 -35.97581163526468, -98.6057682026589 -36.45683256279505 M-100.89280807636791 -34.861492551256106 C-100.06647278792124 -35.4379082769984, -99.24013749947459 -36.014324002740686, -98.6057682026589 -36.45683256279505 M-98.6057682026589 -36.45683256279505 C-98.10892666344407 -36.75802082363205, -97.61208512422924 -37.05920908446906, -96.2212135121713 -37.902363629367436 M-98.6057682026589 -36.45683256279505 C-98.12272985201466 -36.74965324960402, -97.63969150137041 -37.042473936412996, -96.2212135121713 -37.902363629367436 M-96.2212135121713 -37.902363629367436 C-95.45899231833955 -38.300013937963485, -94.69677112450779 -38.69766424655953, -93.74894265161379 -39.19214575375523 M-96.2212135121713 -37.902363629367436 C-95.61500973648987 -38.21861975084839, -95.00880596080843 -38.534875872329344, -93.74894265161379 -39.19214575375523 M-93.74894265161379 -39.19214575375523 C-92.99835667642105 -39.524407899631186, -92.2477707012283 -39.856670045507144, -91.1991147122528 -40.320878944551936 M-93.74894265161379 -39.19214575375523 C-93.12106044917297 -39.470090579312, -92.49317824673217 -39.74803540486877, -91.1991147122528 -40.320878944551936 M-91.1991147122528 -40.320878944551936 C-90.66061034265329 -40.51905353044438, -90.12210597305376 -40.71722811633683, -88.58220748402753 -41.283924994964075 M-91.1991147122528 -40.320878944551936 C-90.40392312774917 -40.6135167983197, -89.60873154324554 -40.906154652087466, -88.58220748402753 -41.283924994964075 M-88.58220748402753 -41.283924994964075 C-88.00276537253797 -41.45590037210047, -87.42332326104838 -41.627875749236864, -85.90897440006361 -42.07732654219777 M-88.58220748402753 -41.283924994964075 C-87.83021986922363 -41.50711097177434, -87.07823225441972 -41.730296948584595, -85.90897440006361 -42.07732654219777 M-85.90897440006361 -42.07732654219777 C-85.33164833450752 -42.209097449256284, -84.75432226895143 -42.3408683563148, -83.19040034850971 -42.69782332911134 M-85.90897440006361 -42.07732654219777 C-85.24679364713842 -42.2284649779197, -84.58461289421324 -42.379603413641625, -83.19040034850971 -42.69782332911134 M-83.19040034850971 -42.69782332911134 C-82.2137728111596 -42.85571689549044, -81.23714527380949 -43.01361046186953, -80.43765653327604 -43.1428656013112 M-83.19040034850971 -42.69782332911134 C-82.46902110236107 -42.81445033124904, -81.74764185621241 -42.93107733338675, -80.43765653327604 -43.1428656013112 M-80.43765653327604 -43.1428656013112 C-79.61256957001913 -43.22246074834434, -78.78748260676224 -43.30205589537748, -77.66205456916101 -43.41062458463963 M-80.43765653327604 -43.1428656013112 C-79.34394998399029 -43.24837415674622, -78.25024343470452 -43.35388271218125, -77.66205456916101 -43.41062458463963 M-77.66205456916101 -43.41062458463963 C-76.83278776595817 -43.43721755694843, -76.00352096275533 -43.46381052925724, -74.87500000000001 -43.5 M-77.66205456916101 -43.41062458463963 C-76.93754854280084 -43.43385808273957, -76.21304251644067 -43.45709158083951, -74.87500000000001 -43.5 M-74.87500000000001 -43.5 C-74.87500000000001 -43.5, -74.875 -43.5, -74.875 -43.5 M-74.87500000000001 -43.5 C-74.87500000000001 -43.5, -74.875 -43.5, -74.875 -43.5" stroke="#3a8f4a" stroke-width="1.3" fill="none" stroke-dasharray="0 0" style="fill:#dff5e1 !important;stroke:#3a8f4a !important"/></g><g class="label" style="" transform="translate(-100, -36)"><rect/><foreignObject width="200" height="72"><div xmlns="http://www.w3.org/1999/xhtml" style="display: table; white-space: break-spaces; line-height: 1.5; max-width: 200px; text-align: center; width: 200px;"><span class="nodeLabel"><p>TX line<br />(UART frame at 8 cycles per bit)</p></span></div></foreignObject></g></g></g></g></g><defs><filter id="my-svg-drop-shadow" height="130%" width="130%"><feDropShadow dx="4" dy="4" stdDeviation="0" flood-opacity="0.06" flood-color="#000000"/></filter></defs><defs><filter id="my-svg-drop-shadow-small" height="150%" width="150%"><feDropShadow dx="2" dy="2" stdDeviation="0" flood-opacity="0.06" flood-color="#000000"/></filter></defs></svg>